<svg width="26" height="26" viewBox="0 0 26 26" fill="none" xmlns="http://www.w3.org/2000/svg">
<g clip-path="url(#clip0_773_112)">
<path d="M23.8333 9.60074C23.8333 11.2761 23.19 12.8853 22.0412 14.0756C19.3969 16.8166 16.8321 19.6747 14.089 22.3163C13.4603 22.913 12.4628 22.8913 11.8612 22.2676L3.9582 14.0756C1.56944 11.5995 1.56944 7.602 3.9582 5.12587C6.37043 2.6254 10.3002 2.6254 12.7124 5.12587L12.9997 5.42362L13.2868 5.12604C14.4434 3.92654 16.0186 3.25 17.664 3.25C19.3095 3.25 20.8846 3.92648 22.0412 5.12587C23.1901 6.31632 23.8333 7.92542 23.8333 9.60074Z" stroke="black" stroke-width="1.625" stroke-linejoin="round"/>
</g>
<defs>
<clipPath id="clip0_773_112">
<rect width="26" height="26" fill="white"/>
</clipPath>
</defs>
</svg>
