<svg width="24" height="28" viewBox="0 0 24 28" fill="none" xmlns="http://www.w3.org/2000/svg">
<g clip-path="url(#clip0_726_155)">
<path fill-rule="evenodd" clip-rule="evenodd" d="M1.77778 0C0.795939 0 0 0.835735 0 1.86667V26.1333C0 27.1643 0.795938 28 1.77778 28H2.66667H5.77778H23.1111C23.602 28 24 27.5821 24 27.0667C24 26.5512 23.602 26.1333 23.1111 26.1333H5.77778C3.56864 26.1333 1.77778 24.2529 1.77778 21.9333C1.77778 19.6137 3.56864 17.7333 5.77778 17.7333H22.2222C23.2041 17.7333 24 16.8976 24 15.8667V1.86667C24 0.835736 23.2041 0 22.2222 0H1.77778ZM4 19.6C3.75454 19.6 3.55556 19.809 3.55556 20.0667C3.55556 20.3244 3.75454 20.5333 4 20.5333H22.6667C22.9121 20.5333 23.1111 20.3244 23.1111 20.0667C23.1111 19.809 22.9121 19.6 22.6667 19.6H4ZM3.55556 21.9333C3.55556 21.6756 3.75454 21.4667 4 21.4667H22.6667C22.9121 21.4667 23.1111 21.6756 23.1111 21.9333C23.1111 22.191 22.9121 22.4 22.6667 22.4H4C3.75454 22.4 3.55556 22.191 3.55556 21.9333ZM4 23.3333C3.75454 23.3333 3.55556 23.5423 3.55556 23.8C3.55556 24.0577 3.75454 24.2667 4 24.2667H22.6667C22.9121 24.2667 23.1111 24.0577 23.1111 23.8C23.1111 23.5423 22.9121 23.3333 22.6667 23.3333H4Z" fill="#2D2926"/>
</g>
<defs>
<clipPath id="clip0_726_155">
<rect width="24" height="28" fill="white"/>
</clipPath>
</defs>
</svg>
