<svg width="88" height="29" viewBox="0 0 88 29" fill="none" xmlns="http://www.w3.org/2000/svg">
<rect width="86" height="28" transform="translate(0 1)" fill="white"/>
<g clip-path="url(#clip0_815_163)">
<path fill-rule="evenodd" clip-rule="evenodd" d="M1.77778 1C0.795939 1 0 1.83573 0 2.86667V27.1333C0 28.1643 0.795938 29 1.77778 29H2.66667H5.77778H23.1111C23.602 29 24 28.5821 24 28.0667C24 27.5512 23.602 27.1333 23.1111 27.1333H5.77778C3.56864 27.1333 1.77778 25.2529 1.77778 22.9333C1.77778 20.6137 3.56864 18.7333 5.77778 18.7333H22.2222C23.2041 18.7333 24 17.8976 24 16.8667V2.86667C24 1.83574 23.2041 1 22.2222 1H1.77778ZM4 20.6C3.75454 20.6 3.55556 20.809 3.55556 21.0667C3.55556 21.3244 3.75454 21.5333 4 21.5333H22.6667C22.9121 21.5333 23.1111 21.3244 23.1111 21.0667C23.1111 20.809 22.9121 20.6 22.6667 20.6H4ZM3.55556 22.9333C3.55556 22.6756 3.75454 22.4667 4 22.4667H22.6667C22.9121 22.4667 23.1111 22.6756 23.1111 22.9333C23.1111 23.191 22.9121 23.4 22.6667 23.4H4C3.75454 23.4 3.55556 23.191 3.55556 22.9333ZM4 24.3333C3.75454 24.3333 3.55556 24.5423 3.55556 24.8C3.55556 25.0577 3.75454 25.2667 4 25.2667H22.6667C22.9121 25.2667 23.1111 25.0577 23.1111 24.8C23.1111 24.5423 22.9121 24.3333 22.6667 24.3333H4Z" fill="#2D2926"/>
</g>
<path d="M28.2734 3.16406H30.0645L31.9648 7.89453L33.8789 3.16406H35.6016L32.7441 10H31.1719L28.2734 3.16406ZM38.8407 5.76172H42.1493C42.1356 4.94141 41.6298 4.23047 40.536 4.23047C39.4559 4.23047 38.8544 4.95508 38.8407 5.76172ZM37.1317 6.54102C37.1317 4.35352 38.5126 2.98633 40.536 2.98633C42.5595 2.98633 43.7899 4.42188 43.7899 6.30859V6.81445H38.8134C38.8407 8.04492 39.5243 8.85156 40.6044 8.85156C41.329 8.85156 41.6298 8.63281 41.8348 8.37305C41.9852 8.16797 42.0536 7.9082 42.0536 7.79883H43.7079C43.7079 8.1543 43.5438 8.64648 43.243 9.04297C42.7509 9.67188 41.9716 10.1777 40.6044 10.1777C38.5809 10.1777 37.1317 8.72852 37.1317 6.54102ZM46.4138 10V3.16406H47.617L47.9314 4.33984C48.2459 3.66992 48.8201 3.16406 49.8318 3.16406H50.1052V4.57227H49.8318C48.5056 4.57227 48.0134 5.46094 47.9998 6.51367V10H46.4138ZM54.0416 6.58203C54.0416 7.88086 54.6022 8.85156 55.7233 8.85156C56.7897 8.85156 57.4596 7.92188 57.4596 6.58203C57.4596 5.22852 56.817 4.3125 55.7233 4.3125C54.6022 4.3125 54.0416 5.44727 54.0416 6.58203ZM52.4557 10V0.744141H54.0416V4.05273C54.4791 3.41016 55.1354 2.98633 56.0377 2.98633C57.9381 2.98633 59.1276 4.47656 59.1276 6.58203C59.1276 8.6875 57.8698 10.1777 56.0377 10.1777C55.067 10.1777 54.3698 9.69922 53.9323 8.97461L53.6588 10H52.4557ZM61.6148 7.12891V3.16406H63.2007V6.99219V7.08789C63.2007 7.88086 63.5152 8.85156 64.7183 8.85156C66.0308 8.85156 66.5093 7.67578 66.5366 6.91016V3.16406H68.1226V10H66.9195L66.646 9.00195C66.2085 9.67188 65.4976 10.1777 64.3765 10.1777C62.5718 10.1777 61.6148 9.05664 61.6148 7.12891ZM71.1566 10V3.16406H72.3598L72.5922 4.08008C72.975 3.46484 73.5629 2.98633 74.4926 2.98633C75.518 2.98633 76.0922 3.57422 76.3246 4.64062C76.7074 3.79297 77.432 2.98633 78.7309 2.98633C80.2348 2.98633 81.2191 3.91602 81.2191 6.03516V10H79.6332V6.17188V6.03516C79.6332 4.95508 79.3051 4.3125 78.3891 4.3125C77.5004 4.3125 77.0082 5.31055 76.9809 6.13086V10H75.3949V6.03516C75.3949 4.95508 75.0668 4.3125 74.1508 4.3125C73.2621 4.3125 72.7699 5.31055 72.7426 6.13086V10H71.1566Z" fill="#2D2926"/>
<path d="M30.543 24.582C30.543 25.8809 31.1035 26.8516 32.2246 26.8516C33.291 26.8516 33.9609 25.9219 33.9609 24.582C33.9609 23.2285 33.3184 22.3125 32.2246 22.3125C31.1035 22.3125 30.543 23.4473 30.543 24.582ZM28.957 28V18.7441H30.543V22.0527C30.9805 21.4102 31.6367 20.9863 32.5391 20.9863C34.4395 20.9863 35.6289 22.4766 35.6289 24.582C35.6289 26.6875 34.3711 28.1777 32.5391 28.1777C31.5684 28.1777 30.8711 27.6992 30.4336 26.9746L30.1602 28H28.957ZM39.497 24.541C39.497 25.8945 40.1669 26.8516 41.288 26.8516C42.4091 26.8516 43.079 25.8945 43.079 24.541C43.079 23.1875 42.4091 22.3125 41.288 22.3125C40.1669 22.3125 39.497 23.1875 39.497 24.541ZM37.8427 24.541C37.8427 22.4355 39.2509 20.9863 41.288 20.9863C43.3251 20.9863 44.7333 22.4355 44.7333 24.541C44.7333 26.6465 43.3251 28.1777 41.288 28.1777C39.2509 28.1777 37.8427 26.6465 37.8427 24.541ZM48.6013 24.541C48.6013 25.8945 49.2712 26.8516 50.3923 26.8516C51.5134 26.8516 52.1834 25.8945 52.1834 24.541C52.1834 23.1875 51.5134 22.3125 50.3923 22.3125C49.2712 22.3125 48.6013 23.1875 48.6013 24.541ZM46.947 24.541C46.947 22.4355 48.3552 20.9863 50.3923 20.9863C52.4295 20.9863 53.8377 22.4355 53.8377 24.541C53.8377 26.6465 52.4295 28.1777 50.3923 28.1777C48.3552 28.1777 46.947 26.6465 46.947 24.541ZM56.4616 28V18.7441H58.0475V23.7344H58.6217L60.7409 21.1641H62.5182L59.8112 24.4453L62.6276 28H60.7135L58.403 25.0879H58.0475V28H56.4616ZM64.2261 25.8535H65.8804C65.8804 26.4824 66.3999 26.8516 67.3023 26.8516C68.0132 26.8516 68.437 26.5371 68.437 26.0723C68.437 24.8145 64.4312 25.6074 64.4312 23.0098C64.4312 21.8066 65.3745 20.9863 67.0835 20.9863C69.1343 20.9863 70.0093 22.1621 70.0093 23.3105H68.355C68.355 22.6816 67.9038 22.3125 67.0835 22.3125C66.4546 22.3125 66.0991 22.627 66.0991 23.0918C66.0991 24.4863 70.105 23.4746 70.105 26.0723C70.105 27.2754 69.0933 28.1777 67.3023 28.1777C65.0601 28.1777 64.2261 27.002 64.2261 25.8535Z" fill="#2D2926"/>
<defs>
<clipPath id="clip0_815_163">
<rect width="24" height="28" fill="white" transform="translate(0 1)"/>
</clipPath>
</defs>
</svg>
