<svg width="64" height="64" viewBox="0 0 64 64" fill="none" xmlns="http://www.w3.org/2000/svg">
<path d="M29.3333 24H58.6666" stroke="#505457" stroke-width="3" stroke-linecap="round" stroke-linejoin="round"/>
<path d="M5.33325 29.3333L12.8176 20.9134C14.8418 18.6362 17.7432 17.3333 20.79 17.3333H21.3333" stroke="#505457" stroke-width="3" stroke-linecap="round" stroke-linejoin="round"/>
<path d="M5.33325 52.0008L19.9999 52L30.6666 44.0008C30.6666 44.0008 32.8242 42.5408 35.9999 40.0003C42.6666 34.6672 35.9999 26.2227 29.3333 30.6659C23.9042 34.284 18.6666 37.3341 18.6666 37.3341" stroke="#505457" stroke-width="3" stroke-linecap="round" stroke-linejoin="round"/>
<path d="M21.3333 36V18.6666C21.3333 15.7211 23.7211 13.3333 26.6666 13.3333H53.3333C56.2789 13.3333 58.6666 15.7211 58.6666 18.6666V34.6666C58.6666 37.6122 56.2789 40 53.3333 40H35.9999" stroke="#505457" stroke-width="3"/>
</svg>
